<svg xmlns="http://www.w3.org/2000/svg" viewBox="0 0 376 756" width="376" height="756">
<style>
  .f { font-family: 'Apple SD Gothic Neo','Noto Sans KR','Malgun Gothic','Nanum Gothic','WenQuanYi Zen Hei',sans-serif; }
  .ink { fill: #2B2724; }
  .mute { fill: #94897F; }
  .rose { fill: #C4756B; }
  .white { fill: #FFFFFF; }
  .b { font-weight: 700; }
  .sb { font-weight: 600; }
</style>
<rect width="376" height="756" fill="#F4F1EE"/>
<g transform="translate(18,18)">
  <rect width="340" height="720" rx="30" fill="#FFFFFF" stroke="#E5DED8"/>
  <text class="f mute" x="24" y="36" font-size="10.5">9:41</text>

  <text class="f b ink" x="24" y="76" font-size="20">일정</text>
  <text class="f mute" x="24" y="97" font-size="11">wedding schedule 6단계</text>

  <line x1="44" y1="140" x2="44" y2="612" stroke="#EAE4DF" stroke-width="2"/>

  <circle cx="44" cy="146" r="11" fill="#6E8B6F"/>
  <path d="M39.5 146 l3 3 l5.5 -6" stroke="#fff" stroke-width="2" fill="none" stroke-linecap="round" stroke-linejoin="round"/>
  <text class="f b ink" x="70" y="142" font-size="13.5">플래너 &amp; 웨딩홀 결정</text>
  <text class="f sb mute" x="70" y="160" font-size="10.5">시기 미정</text>
  <text class="f mute" x="70" y="177" font-size="10.5" opacity="0.85">웨딩홀 투어 · 스드메 예약 · 본식스냅/DVD</text>

  <circle cx="44" cy="240" r="11" fill="#FFFFFF" stroke="#D8D0C9" stroke-width="2"/>
  <text class="f b ink" x="70" y="236" font-size="13.5">드레스샵 투어</text>
  <text class="f sb mute" x="70" y="254" font-size="10.5">시기 미정</text>
  <text class="f mute" x="70" y="271" font-size="10.5" opacity="0.85">2곳 · 샵당 1시간 · 4벌 피팅 후 1벌 홀딩</text>
  <rect x="70" y="278" width="74" height="18" rx="9" fill="#F1EDE9"/>
  <text class="f sb mute" x="107" y="291" font-size="9.5" text-anchor="middle">B 드레스샵</text>
  <rect x="150" y="278" width="66" height="18" rx="9" fill="#FBFAF9" stroke="#D8D0C9" stroke-width="1.1" stroke-dasharray="3 3"/>
  <text class="f sb mute" x="183" y="291" font-size="9.5" text-anchor="middle">1곳 더</text>

  <circle cx="44" cy="334" r="11" fill="#FFFFFF" stroke="#D8D0C9" stroke-width="2"/>
  <text class="f b ink" x="70" y="330" font-size="13.5">촬영 가봉</text>
  <text class="f sb mute" x="70" y="348" font-size="10.5">시기 미정</text>
  <text class="f mute" x="70" y="365" font-size="10.5" opacity="0.85">1시간 · 6벌 피팅 후 3벌 선택</text>

  <circle cx="44" cy="410" r="11" fill="#FFFFFF" stroke="#C4756B" stroke-width="2"/>
  <text class="f b ink" x="70" y="406" font-size="13.5">웨딩 촬영</text>
  <text class="f sb mute" x="70" y="424" font-size="10.5">시기 미정</text>
  <rect x="112" y="412" width="128" height="18" rx="9" fill="#FAEEEC"/>
  <text class="f sb rose" x="176" y="425" font-size="9.5" text-anchor="middle">날짜 바뀐 기록이 남아요</text>
  <text class="f mute" x="70" y="441" font-size="10.5" opacity="0.85">헤어·메이크업 3Hr + 촬영 5Hr · 의상 4벌</text>
  <rect x="70" y="448" width="70" height="18" rx="9" fill="#F1EDE9"/>
  <text class="f sb mute" x="105" y="461" font-size="9.5" text-anchor="middle">A 스튜디오</text>
  <rect x="146" y="448" width="82" height="18" rx="9" fill="#F7F4F1"/>
  <text class="f sb mute" x="187" y="461" font-size="9.5" text-anchor="middle">별도 2건 · 1건 입력</text>

  <circle cx="44" cy="504" r="11" fill="#FFFFFF" stroke="#D8D0C9" stroke-width="2"/>
  <text class="f b ink" x="70" y="500" font-size="13.5">본식 가봉</text>
  <text class="f sb mute" x="70" y="518" font-size="10.5">시기 미정</text>
  <text class="f mute" x="70" y="535" font-size="10.5" opacity="0.85">4벌 피팅 후 1벌 선택 · 부케 결정</text>
  <text class="f mute" x="70" y="552" font-size="10.5" opacity="0.85">양가 혼주 한복 / 정장</text>

  <circle cx="44" cy="598" r="11" fill="#C4756B"/>
  <text class="f b ink" x="70" y="594" font-size="13.5">본식</text>
  <text class="f sb mute" x="70" y="612" font-size="10.5">시기 미정</text>
  <text class="f mute" x="70" y="629" font-size="10.5" opacity="0.85">헤어·메이크업 3Hr · 드레스 헬퍼 / 예복 직접</text>
  <rect x="70" y="636" width="104" height="18" rx="9" fill="#F7F4F1"/>
  <text class="f sb mute" x="122" y="649" font-size="9.5" text-anchor="middle">헬퍼비 · 금액 미입력</text>

  <line x1="0" y1="656" x2="340" y2="656" stroke="#EFE9E4"/>
  <text class="f mute" x="47"  y="688" font-size="10.5" text-anchor="middle">홈</text>
  <text class="f mute" x="132" y="688" font-size="10.5" text-anchor="middle">체크리스트</text>
  <text class="f sb rose"  x="217" y="688" font-size="10.5" text-anchor="middle">일정</text>
  <text class="f mute" x="295" y="688" font-size="10.5" text-anchor="middle">비용</text>
  <rect x="200" y="700" width="34" height="2.5" rx="1.25" fill="#C4756B"/>
</g>
</svg>
