<svg xmlns="http://www.w3.org/2000/svg" viewBox="0 0 376 756" width="376" height="756">
<style>
  .f { font-family: 'Apple SD Gothic Neo','Noto Sans KR','Malgun Gothic','Nanum Gothic','WenQuanYi Zen Hei',sans-serif; }
  .ink { fill: #2B2724; }
  .mute { fill: #94897F; }
  .rose { fill: #C4756B; }
  .white { fill: #FFFFFF; }
  .b { font-weight: 700; }
  .sb { font-weight: 600; }
</style>
<rect width="376" height="756" fill="#F4F1EE"/>
<g transform="translate(18,18)">
  <rect width="340" height="720" rx="30" fill="#FFFFFF" stroke="#E5DED8"/>
  <text class="f mute" x="24" y="36" font-size="10.5">9:41</text>

  <text class="f b ink" x="24" y="76" font-size="20">비용</text>

  <rect x="20" y="98" width="300" height="100" rx="16" fill="#2B2724"/>
  <text class="f white" x="40" y="128" font-size="11" opacity="0.65">입력한 금액 합계</text>
  <text class="f b white" x="40" y="166" font-size="26">2,400,000원</text>
  <rect x="216" y="112" width="84" height="24" rx="12" fill="#C4756B"/>
  <text class="f sb white" x="258" y="128" font-size="10.5" text-anchor="middle">5개 미입력</text>
  <text class="f white" x="40" y="184" font-size="9.5" opacity="0.5">직접 입력한 금액만 더합니다</text>

  <text class="f b ink" x="24" y="232" font-size="13">계약 금액</text>
  <rect x="20" y="244" width="300" height="158" rx="16" fill="#FFFFFF" stroke="#EAE4DF"/>
  <text class="f sb ink" x="40" y="272" font-size="12.5">스드메 패키지</text>
  <text class="f b ink" x="300" y="272" font-size="14" text-anchor="end">2,000,000</text>
  <rect x="40" y="282" width="86" height="18" rx="9" fill="#F1EDE9"/>
  <text class="f sb mute" x="83" y="295" font-size="9.5" text-anchor="middle">C 웨딩플래너</text>
  <text class="f mute" x="300" y="295" font-size="10" text-anchor="end">VAT 포함 · 계약서 기재</text>
  <line x1="40" y1="314" x2="300" y2="314" stroke="#EFE9E4"/>
  <text class="f ink" x="40" y="340" font-size="12">계약금 10%</text>
  <text class="f sb ink" x="300" y="340" font-size="12" text-anchor="end">200,000</text>
  <text class="f ink" x="40" y="364" font-size="12">중도금 70%</text>
  <text class="f mute" x="300" y="364" font-size="11" text-anchor="end">촬영 60일 전</text>
  <text class="f ink" x="40" y="388" font-size="12">잔금 20%</text>
  <text class="f mute" x="300" y="388" font-size="11" text-anchor="end">본식 60일 전</text>

  <text class="f b ink" x="24" y="434" font-size="13">별도 비용</text>
  <rect x="96" y="422" width="150" height="18" rx="9" fill="#FAEEEC"/>
  <text class="f sb rose" x="171" y="435" font-size="9.5" text-anchor="middle">계약서에 '별도'로 적힌 것</text>

  <rect x="20" y="448" width="300" height="166" rx="16" fill="#FFFFFF" stroke="#EAE4DF"/>

  <text class="f ink" x="40" y="476" font-size="12">스튜디오 원본</text>
  <text class="f mute" x="40" y="491" font-size="9.5">A 스튜디오</text>
  <text class="f b ink" x="300" y="480" font-size="12.5" text-anchor="end">400,000</text>

  <text class="f ink" x="40" y="516" font-size="12">드레스 헬퍼비 · 촬영</text>
  <text class="f mute" x="40" y="531" font-size="9.5" opacity="0.7">업체 미입력</text>
  <rect x="226" y="504" width="74" height="20" rx="10" fill="#FBFAF9" stroke="#D8D0C9" stroke-width="1.2" stroke-dasharray="3 3"/>
  <text class="f sb mute" x="263" y="518" font-size="10" text-anchor="middle">입력</text>

  <text class="f ink" x="40" y="556" font-size="12">드레스 헬퍼비 · 본식</text>
  <text class="f mute" x="40" y="571" font-size="9.5" opacity="0.7">업체 미입력</text>
  <rect x="226" y="544" width="74" height="20" rx="10" fill="#FBFAF9" stroke="#D8D0C9" stroke-width="1.2" stroke-dasharray="3 3"/>
  <text class="f sb mute" x="263" y="558" font-size="10" text-anchor="middle">입력</text>

  <text class="f ink" x="40" y="596" font-size="12">메이크업 얼리스타트</text>
  <rect x="226" y="584" width="74" height="20" rx="10" fill="#FBFAF9" stroke="#D8D0C9" stroke-width="1.2" stroke-dasharray="3 3"/>
  <text class="f sb mute" x="263" y="598" font-size="10" text-anchor="middle">입력</text>

  <text class="f mute" x="24" y="636" font-size="9.5" opacity="0.75">투어비 · 출장비 2건 더 있어요</text>

  <line x1="0" y1="656" x2="340" y2="656" stroke="#EFE9E4"/>
  <text class="f mute" x="47"  y="688" font-size="10.5" text-anchor="middle">홈</text>
  <text class="f mute" x="132" y="688" font-size="10.5" text-anchor="middle">체크리스트</text>
  <text class="f mute" x="217" y="688" font-size="10.5" text-anchor="middle">일정</text>
  <text class="f sb rose"  x="295" y="688" font-size="10.5" text-anchor="middle">비용</text>
  <rect x="278" y="700" width="34" height="2.5" rx="1.25" fill="#C4756B"/>
</g>
</svg>
